<svg xmlns="http://www.w3.org/2000/svg" width="32" height="32" viewBox="0 0 32 32">
    <defs>
        <filter id="a" width="140.6%" height="140.6%" x="-20.3%" y="-20.3%" filterUnits="objectBoundingBox">
            <feOffset dy="1" in="SourceAlpha" result="shadowOffsetOuter1"/>
            <feGaussianBlur in="shadowOffsetOuter1" result="shadowBlurOuter1" stdDeviation="1"/>
            <feColorMatrix in="shadowBlurOuter1" result="shadowMatrixOuter1" values="0 0 0 0 0 0 0 0 0 0 0 0 0 0 0 0 0 0 0.5 0"/>
            <feMerge>
                <feMergeNode in="shadowMatrixOuter1"/>
                <feMergeNode in="SourceGraphic"/>
            </feMerge>
        </filter>
    </defs>
    <g fill="none" fill-rule="evenodd" filter="url(#a)">
        <path d="M0 0h32v32H0z"/>
        <path fill="#FFF" d="M16 1.667A14.289 14.289 0 0 1 26.743 6.51l1.883-1.885c.63-.63 1.707-.184 1.707.707v5.334a1 1 0 0 1-1 1H24c-.89 0-1.337-1.077-.707-1.707l2.032-2.032A12.29 12.29 0 0 0 16 3.667C9.188 3.667 3.667 9.188 3.667 16S9.188 28.333 16 28.333a12.29 12.29 0 0 0 8.721-3.612 12.353 12.353 0 0 0 2.677-4 1 1 0 1 1 1.847.766 14.353 14.353 0 0 1-3.11 4.648A14.289 14.289 0 0 1 16 30.333C8.084 30.333 1.667 23.916 1.667 16S8.084 1.667 16 1.667zM18.741 12c.644 0 1.222.183 1.735.548.475.349.848.832 1.118 1.449.27.609.406 1.283.406 2.021 0 1.259-.326 2.257-.979 2.996-.587.657-1.347.986-2.28.986-1.072 0-1.902-.422-2.49-1.266-.503-.715-.754-1.62-.754-2.716 0-.738.13-1.412.391-2.021.27-.617.643-1.1 1.119-1.45A2.877 2.877 0 0 1 18.741 12zm-5.175.146v7.708h-1.3v-6.466l-1.637.828-.629-.84 2.266-1.23h1.3zm5.175.828c-.652 0-1.142.305-1.468.913-.27.512-.406 1.198-.406 2.058 0 .99.177 1.766.532 2.326.335.503.778.755 1.328.755.653 0 1.147-.325 1.483-.974.28-.536.42-1.238.42-2.107 0-.99-.178-1.745-.532-2.265-.326-.47-.779-.706-1.357-.706z"/>
    </g>
</svg>
